<svg width="32" height="32" viewBox="0 0 32 32" fill="none" xmlns="http://www.w3.org/2000/svg">
<g clip-path="url(#clip0_6_99)">
<path d="M16 32C11.9249 31.9972 8.00437 30.4397 5.03843 27.6451C2.07248 24.8505 0.284626 21.0295 0.0396663 16.9618C-0.205293 12.894 1.1111 8.88609 3.72025 5.75577C6.3294 2.62545 10.0347 0.608657 14.08 0.116908C16.5404 -0.187851 19.0379 0.0882493 21.3723 0.923062C21.5246 0.977611 21.6647 1.06163 21.7846 1.17032C21.9045 1.27901 22.0017 1.41025 22.0709 1.55654C22.14 1.70283 22.1797 1.8613 22.1876 2.02291C22.1955 2.18453 22.1715 2.34611 22.1169 2.49845C22.0624 2.65078 21.9784 2.79088 21.8697 2.91074C21.761 3.0306 21.6297 3.12788 21.4834 3.19703C21.3372 3.26617 21.1787 3.30582 21.0171 3.31372C20.8555 3.32162 20.6939 3.29761 20.5415 3.24306C17.5175 2.16712 14.2096 2.20055 11.208 3.3374C8.20637 4.47426 5.70628 6.64057 4.15379 9.44984C2.6013 12.2591 2.09741 15.5286 2.732 18.6749C3.3666 21.8213 5.09841 24.6398 7.61846 26.6277C9.72744 28.2813 12.2798 29.2718 14.9522 29.4738C17.6245 29.6757 20.2967 29.0799 22.6302 27.7619C24.9637 26.4439 26.8536 24.463 28.0604 22.0701C29.2672 19.6772 29.7366 16.9799 29.4092 14.32C29.3898 14.1584 29.4025 13.9945 29.4464 13.8377C29.4903 13.681 29.5647 13.5344 29.6653 13.4064C29.7659 13.2784 29.8907 13.1715 30.0326 13.0917C30.1745 13.012 30.3307 12.9609 30.4923 12.9415C30.6539 12.9221 30.8178 12.9348 30.9745 12.9787C31.1313 13.0226 31.2778 13.097 31.4058 13.1976C31.5338 13.2981 31.6408 13.4229 31.7206 13.5648C31.8003 13.7067 31.8514 13.863 31.8708 14.0246C32.1507 16.2746 31.9492 18.5584 31.2797 20.7246C30.6102 22.8909 29.4879 24.8901 27.9872 26.5897C26.4866 28.2894 24.6418 29.6507 22.5752 30.5834C20.5086 31.5162 18.2673 31.999 16 32V32Z" fill="black"/>
<path d="M16 26.9908C15.6736 26.9908 15.3605 26.8611 15.1297 26.6303C14.8989 26.3995 14.7692 26.0864 14.7692 25.76V13.9446C14.7692 13.6182 14.8989 13.3051 15.1297 13.0743C15.3605 12.8435 15.6736 12.7138 16 12.7138C16.3264 12.7138 16.6395 12.8435 16.8703 13.0743C17.1011 13.3051 17.2308 13.6182 17.2308 13.9446V25.76C17.2308 26.0864 17.1011 26.3995 16.8703 26.6303C16.6395 26.8611 16.3264 26.9908 16 26.9908Z" fill="black"/>
<path d="M16 11.2492C16.8735 11.2492 17.5815 10.5411 17.5815 9.66769C17.5815 8.79423 16.8735 8.08615 16 8.08615C15.1265 8.08615 14.4185 8.79423 14.4185 9.66769C14.4185 10.5411 15.1265 11.2492 16 11.2492Z" fill="black"/>
</g>
<defs>
<clipPath id="clip0_6_99">
<rect width="32" height="32" fill="white"/>
</clipPath>
</defs>
</svg>
