<svg width="80" height="80" viewBox="0 0 80 80" fill="none" xmlns="http://www.w3.org/2000/svg">
<circle cx="40" cy="40" r="40" fill="#57F179"/>
<path d="M41.5 22C41.5 21.1716 40.8284 20.5 40 20.5C39.1716 20.5 38.5 21.1716 38.5 22L41.5 22ZM38.9393 58.0607C39.5251 58.6464 40.4749 58.6464 41.0607 58.0607L50.6066 48.5147C51.1924 47.9289 51.1924 46.9792 50.6066 46.3934C50.0208 45.8076 49.0711 45.8076 48.4853 46.3934L40 54.8787L31.5147 46.3934C30.9289 45.8076 29.9792 45.8076 29.3934 46.3934C28.8076 46.9792 28.8076 47.9289 29.3934 48.5147L38.9393 58.0607ZM38.5 22L38.5 57L41.5 57L41.5 22L38.5 22Z" fill="black"/>
</svg>
