<svg width="32" height="32" viewBox="0 0 32 32" fill="none" xmlns="http://www.w3.org/2000/svg">
<rect width="32" height="32" fill="white" fill-opacity="0.33"/>
<path d="M30 17.5C30.8284 17.5 31.5 16.8284 31.5 16C31.5 15.1716 30.8284 14.5 30 14.5V17.5ZM0.939341 14.9393C0.353554 15.5251 0.353554 16.4749 0.939341 17.0607L10.4853 26.6066C11.0711 27.1924 12.0208 27.1924 12.6066 26.6066C13.1924 26.0208 13.1924 25.0711 12.6066 24.4853L4.12132 16L12.6066 7.51472C13.1924 6.92893 13.1924 5.97919 12.6066 5.3934C12.0208 4.80761 11.0711 4.80761 10.4853 5.3934L0.939341 14.9393ZM30 14.5L2 14.5V17.5L30 17.5V14.5Z" fill="black"/>
</svg>
