<svg width="32" height="32" viewBox="0 0 32 32" fill="none" xmlns="http://www.w3.org/2000/svg">
<path d="M5.33334 4H18.6667C19.3739 4 20.0522 4.28095 20.5523 4.78105C21.0524 5.28115 21.3333 5.95942 21.3333 6.66667V14.6667C21.3333 15.3739 21.0524 16.0522 20.5523 16.5523C20.0522 17.0524 19.3739 17.3333 18.6667 17.3333H14.6667L10.6667 21.3333L6.66667 17.3333H5.33334C4.62609 17.3333 3.94782 17.0524 3.44772 16.5523C2.94762 16.0522 2.66667 15.3739 2.66667 14.6667V6.66667C2.66667 5.95942 2.94762 5.28115 3.44772 4.78105C3.94782 4.28095 4.62609 4 5.33334 4V4Z" stroke="black" stroke-width="1.5" stroke-linecap="round" stroke-linejoin="round"/>
<path d="M21.3333 10.6667H26.6667C27.3739 10.6667 28.0522 10.9476 28.5523 11.4477C29.0524 11.9478 29.3333 12.6261 29.3333 13.3333V21.3333C29.3333 22.0406 29.0524 22.7189 28.5523 23.219C28.0522 23.7191 27.3739 24 26.6667 24H24L21.3333 28L17.3333 24H13.3333C12.6261 24 11.9478 23.7191 11.4477 23.219C10.9476 22.7189 10.6667 22.0406 10.6667 21.3333V21.3333" stroke="black" stroke-width="1.5" stroke-linecap="round" stroke-linejoin="round"/>
</svg>
