<svg width="32" height="32" viewBox="0 0 32 32" fill="none" xmlns="http://www.w3.org/2000/svg">
<circle cx="16" cy="16" r="16" fill="#57F179"/>
<path d="M21.3104 18.1828V21.8327H10.1458V18.1828H8V22.9056C8 23.4978 8.47969 23.978 9.07451 23.978H22.3817C22.976 23.978 23.4562 23.4983 23.4562 22.9056V18.1828H21.3104Z" fill="black"/>
<path d="M15.5317 17.8209L12.4595 14.1086C12.4595 14.1086 11.9921 13.6673 12.499 13.6673C13.0058 13.6673 14.2301 13.6673 14.2301 13.6673C14.2301 13.6673 14.2301 13.3704 14.2301 12.9126C14.2301 11.6073 14.2301 9.23174 14.2301 8.2633C14.2301 8.2633 14.1614 8 14.5579 8C14.9577 8 16.7085 8 16.9948 8C17.2804 8 17.274 8.22172 17.274 8.22172C17.274 9.16085 17.274 11.6185 17.274 12.8811C17.274 13.2905 17.274 13.5559 17.274 13.5559C17.274 13.5559 18.2558 13.5559 18.8719 13.5559C19.487 13.5559 19.0238 14.018 19.0238 14.018C19.0238 14.018 16.4101 17.4878 16.0455 17.8518C15.7833 18.1156 15.5317 17.8209 15.5317 17.8209Z" fill="black"/>
</svg>
