<svg width="32" height="32" viewBox="0 0 32 32" fill="none" xmlns="http://www.w3.org/2000/svg">
<g clip-path="url(#clip0_6_81)">
<path d="M29.0077 12.7438L16.4507 0.186937C16.2018 -0.0619869 15.7982 -0.0619869 15.5492 0.186937L2.99239 12.7438C2.81008 12.9261 2.75558 13.2003 2.85425 13.4385C2.95293 13.6767 3.18535 13.832 3.44319 13.832H4.89116V31.3628C4.89116 31.7148 5.17655 32.0002 5.52861 32.0002H13.1502H18.8499H26.4715C26.8235 32.0002 27.1089 31.7148 27.1089 31.3628V13.8321H28.5569C28.8147 13.8321 29.0471 13.6767 29.1458 13.4386C29.2445 13.2004 29.19 12.9262 29.0077 12.7438ZM16 1.53916L27.018 12.5571H26.4715H5.52855H4.98206L16 1.53916ZM13.7877 30.7253V22.7306H18.2124V30.7253H13.7877ZM25.834 30.7253H19.4873V22.0931C19.4873 21.741 19.2019 21.4557 18.8499 21.4557H13.1502C12.7982 21.4557 12.5128 21.741 12.5128 22.0931V30.7253H6.166V13.8321H25.834V30.7253V30.7253Z" fill="black"/>
<path d="M7.98074 16.2354H20.5067C20.8588 16.2354 21.1442 15.95 21.1442 15.598C21.1442 15.2459 20.8588 14.9605 20.5067 14.9605H7.98074C7.62868 14.9605 7.34329 15.2459 7.34329 15.598C7.34329 15.95 7.62868 16.2354 7.98074 16.2354Z" fill="black"/>
<path d="M22.8263 16.2354H24.0192C24.3713 16.2354 24.6567 15.95 24.6567 15.598C24.6567 15.2459 24.3713 14.9605 24.0192 14.9605H22.8263C22.4743 14.9605 22.1889 15.2459 22.1889 15.598C22.1889 15.95 22.4743 16.2354 22.8263 16.2354Z" fill="black"/>
<path d="M15.0059 25.2994C14.6538 25.2994 14.3684 25.5848 14.3684 25.9369V26.931C14.3684 27.2831 14.6538 27.5684 15.0059 27.5684C15.358 27.5684 15.6433 27.2831 15.6433 26.931V25.9369C15.6433 25.5848 15.358 25.2994 15.0059 25.2994Z" fill="black"/>
</g>
<defs>
<clipPath id="clip0_6_81">
<rect width="32" height="32" fill="white"/>
</clipPath>
</defs>
</svg>
