<svg width="32" height="32" viewBox="0 0 32 32" fill="none" xmlns="http://www.w3.org/2000/svg">
<path d="M31.2228 2.03996L29.9609 0.777943C29.4592 0.276207 28.7922 0 28.0829 0C27.3735 0 26.7066 0.276207 26.205 0.777815L25.2495 1.73335L25.1246 1.60847C24.8757 1.35961 24.4722 1.35955 24.2231 1.60847L3.9615 21.8701L3.9622 21.8704C3.90413 21.9284 3.85651 21.9973 3.82394 22.0753L1.96884 26.5195L0.0498592 31.1169C-0.0497103 31.3555 0.00460032 31.6305 0.187357 31.8132C0.309301 31.9352 0.472424 32 0.638225 32C0.720902 32 0.80428 31.9839 0.883706 31.9508L5.48118 30.0317C5.48131 30.0317 5.48143 30.0316 5.4815 30.0316L9.92528 28.1766C10.0032 28.1441 10.0722 28.0965 10.1302 28.0384L10.1305 28.0391L30.3922 7.77751C30.5117 7.65799 30.5789 7.49583 30.5789 7.32677C30.5789 7.15772 30.5117 6.99556 30.3922 6.87603L30.2673 6.75116L31.2228 5.79569C32.2582 4.76021 32.2582 3.07544 31.2228 2.03996ZM1.82382 30.1768L2.77903 27.8884L4.11226 29.2216L1.82382 30.1768ZM5.38429 28.6906L3.30996 26.6164L4.63407 23.4442L8.55642 27.3665L5.38429 28.6906ZM9.6798 26.6868L5.31378 22.3208L22.6421 4.99244L27.0081 9.35845L9.6798 26.6868ZM27.9097 8.45697L23.5437 4.09096L24.6739 2.96076L29.0399 7.32677L27.9097 8.45697ZM30.3213 4.89408L29.3751 5.84031L26.1603 2.62552L27.1066 1.6793C27.3673 1.41852 27.7141 1.2749 28.0829 1.2749C28.4517 1.2749 28.7985 1.41852 29.0593 1.6793L30.3212 2.94125C30.8596 3.47971 30.8596 4.35569 30.3213 4.89408Z" fill="black"/>
<path d="M16.2714 12.7105L7.05193 21.9301C6.803 22.179 6.803 22.5827 7.05193 22.8316C7.17642 22.9561 7.33954 23.0183 7.50267 23.0183C7.66579 23.0183 7.82891 22.9561 7.95341 22.8316L17.173 13.612C17.4219 13.3631 17.4219 12.9595 17.173 12.7105C16.924 12.4616 16.5205 12.4616 16.2714 12.7105Z" fill="black"/>
<path d="M19.1397 9.84222L17.9787 11.0032C17.7298 11.2521 17.7298 11.6558 17.9787 11.9048C18.1032 12.0292 18.2664 12.0915 18.4295 12.0915C18.5926 12.0915 18.7557 12.0292 18.8802 11.9048L20.0412 10.7438C20.2902 10.4948 20.2902 10.0912 20.0413 9.84222C19.7923 9.59336 19.3888 9.59336 19.1397 9.84222Z" fill="black"/>
</svg>
