<svg width="32" height="32" viewBox="0 0 32 32" fill="none" xmlns="http://www.w3.org/2000/svg">
<path d="M20.7541 0H3.46667V32H28.5333V7.7792L20.7541 0ZM21.0667 1.8208L26.7125 7.46667H21.0667V1.8208ZM4.53334 30.9333V1.06667H20V8.53333H27.4667V30.9333H4.53334Z" fill="black"/>
<path d="M18.4 19.7333C18.6944 19.7333 18.9334 19.4949 18.9334 19.2C18.9334 18.9051 18.6944 18.6667 18.4 18.6667H9.33335C9.03895 18.6667 8.80002 18.9051 8.80002 19.2C8.80002 19.4949 9.03895 19.7333 9.33335 19.7333H18.4Z" fill="black"/>
<path d="M23.7333 16H20C19.7056 16 19.4667 16.2384 19.4667 16.5333C19.4667 16.8283 19.7056 17.0667 20 17.0667H23.7333C24.0277 17.0667 24.2667 16.8283 24.2667 16.5333C24.2667 16.2384 24.0277 16 23.7333 16Z" fill="black"/>
<path d="M11.4667 16.5333C11.4667 16.8283 11.7056 17.0667 12 17.0667H17.3333C17.6277 17.0667 17.8667 16.8283 17.8667 16.5333C17.8667 16.2384 17.6277 16 17.3333 16H12C11.7056 16 11.4667 16.2384 11.4667 16.5333Z" fill="black"/>
<path d="M8.95469 16.1547C8.85869 16.2555 8.80002 16.3941 8.80002 16.5333C8.80002 16.672 8.85869 16.8107 8.95469 16.9067C9.05069 17.0075 9.18935 17.0667 9.33335 17.0667C9.47735 17.0667 9.61068 17.008 9.71202 16.912C9.80802 16.8107 9.86669 16.672 9.86669 16.5333C9.86669 16.3941 9.80802 16.2555 9.71202 16.1547C9.51468 15.9573 9.14669 15.9627 8.95469 16.1547Z" fill="black"/>
<path d="M20.688 18.8213C20.592 18.9221 20.5334 19.0555 20.5334 19.2C20.5334 19.344 20.5867 19.4773 20.688 19.5787C20.7894 19.6747 20.928 19.7333 21.0667 19.7333C21.2054 19.7333 21.344 19.6747 21.4454 19.5787C21.5467 19.4773 21.6 19.344 21.6 19.2C21.6 19.0608 21.5414 18.9221 21.4454 18.8213C21.2427 18.624 20.8907 18.624 20.688 18.8213Z" fill="black"/>
<path d="M23.3547 18.8213C23.2587 18.9221 23.2 19.0555 23.2 19.2C23.2 19.344 23.2533 19.4773 23.3547 19.5787C23.456 19.6747 23.5947 19.7333 23.7333 19.7333C23.872 19.7333 24.0107 19.6747 24.112 19.5733C24.2133 19.472 24.2667 19.3387 24.2667 19.2C24.2667 19.0608 24.208 18.9221 24.112 18.8213C23.9093 18.624 23.5573 18.624 23.3547 18.8213Z" fill="black"/>
<path d="M12.28 21.4219C11.112 22.0299 10.7189 23.1931 10.5755 24.3989C10.3547 24.2139 10.1339 24.0293 9.91307 23.8443C9.39041 23.4064 8.63201 24.1568 9.15894 24.5989C9.65761 25.0165 10.1568 25.4347 10.6555 25.8528C11.0064 26.1467 11.5493 25.9611 11.5659 25.4757C11.6048 24.3205 11.6592 22.9467 12.8181 22.3435C13.4277 22.0261 12.8885 21.1051 12.28 21.4219Z" fill="black"/>
<path d="M19.4427 23.5243C18.6651 23.4752 17.5269 24.6736 16.9275 23.6059C16.7888 23.3584 16.4405 23.2656 16.1979 23.4144C15.4427 23.8779 14.4555 24.5445 13.6613 23.6811C13.1957 23.1749 12.4427 23.9307 12.9072 24.4352C13.9045 25.5195 15.1877 25.1899 16.32 24.5755C16.5749 24.8608 16.8912 25.0693 17.2997 25.152C17.7221 25.2373 19.4464 24.5435 19.5397 24.6715C19.9408 25.2203 20.8667 24.6885 20.4608 24.1333C20.1851 23.7563 19.9312 23.5552 19.4427 23.5243Z" fill="black"/>
<path d="M15.2885 12.7803L15.648 12.5248L15.4645 12.1237C15.2981 11.76 15.0309 11.4773 14.6912 11.3067L13.5605 10.7296C14.0805 10.3973 14.4544 9.89708 14.6779 9.23574C15.0427 9.01334 15.2725 8.61814 15.2725 8.17761V7.82188C15.2725 7.46081 15.1157 7.12428 14.8491 6.89121C14.6587 5.87894 13.9723 4.78401 11.8944 4.78401C11.8128 4.78401 11.7328 4.78721 11.6539 4.79361C11.3749 4.81654 10.9685 4.79361 10.6208 4.56001C10.4592 4.45121 10.3765 4.36694 10.336 4.31521C10.1669 4.10028 9.8832 4.02508 9.62987 4.12854C9.37707 4.23254 9.2288 4.48534 9.25974 4.75734C9.27574 4.89441 9.29867 5.05441 9.33334 5.22881C9.37814 5.45281 9.38081 5.51734 9.37921 5.53441C9.37494 5.55308 9.34401 5.61921 9.31947 5.67254C9.28214 5.75254 9.23627 5.85121 9.1824 5.98294C9.06667 6.26508 8.98241 6.57228 8.93121 6.89974C8.67041 7.13334 8.51627 7.46668 8.51627 7.82241V8.17814C8.51627 8.61868 8.74614 9.01388 9.11094 9.23628C9.33334 9.89494 9.70561 10.3941 10.2219 10.7259L9.0464 11.3056C8.71947 11.4837 8.46454 11.768 8.30934 12.1275L8.13867 12.5227L8.48854 12.7728C9.49174 13.4885 10.6688 13.8667 11.8944 13.8667C13.1157 13.8667 14.2891 13.4912 15.2885 12.7803ZM9.60854 12.2171L10.9125 11.5749C11.1893 11.4379 11.3616 11.1611 11.3616 10.8523V10.0939L11.0395 9.95468C10.5531 9.74561 10.2363 9.34081 10.0693 8.71681L9.99307 8.43254L9.712 8.34508C9.65014 8.32588 9.584 8.26561 9.584 8.17814V7.82241C9.584 7.74668 9.63467 7.69334 9.68214 7.66828L9.93227 7.53494L9.9616 7.25281C9.99467 6.93548 10.0645 6.64481 10.1701 6.38774C10.216 6.27521 10.2555 6.19148 10.2875 6.12268C10.3701 5.94561 10.4203 5.81441 10.4384 5.66668C10.8277 5.82934 11.2699 5.89334 11.7397 5.85761C11.7904 5.85334 11.8421 5.85121 11.8949 5.85121C13.4517 5.85121 13.7451 6.56268 13.8267 7.25814L13.8592 7.53708L14.1077 7.66774C14.1552 7.69281 14.2064 7.74614 14.2064 7.82241V8.17814C14.2064 8.26561 14.1397 8.32588 14.0784 8.34508L13.7973 8.43254L13.7211 8.71681C13.5541 9.34081 13.2368 9.74614 12.7509 9.95468L12.4288 10.0939V10.8555C12.4288 11.1595 12.5968 11.4347 12.8688 11.5739L14.1568 12.2315C12.7589 12.9829 11.0016 12.9781 9.60854 12.2171Z" fill="black"/>
</svg>
