<svg width="32" height="32" viewBox="0 0 32 32" fill="none" xmlns="http://www.w3.org/2000/svg">
<g clip-path="url(#clip0_61_137)">
<rect x="1" y="1" width="30" height="30" rx="10" fill="#57F179"/>
<path d="M5.11364 22V4.54545H11.0114C12.3807 4.54545 13.5 4.79261 14.3693 5.28693C15.2443 5.77557 15.892 6.4375 16.3125 7.27273C16.733 8.10795 16.9432 9.03977 16.9432 10.0682C16.9432 11.0966 16.733 12.0312 16.3125 12.8722C15.8977 13.7131 15.2557 14.3835 14.3864 14.8835C13.517 15.3778 12.4034 15.625 11.0455 15.625H6.81818V13.75H10.9773C11.9148 13.75 12.6676 13.5881 13.2358 13.2642C13.804 12.9403 14.2159 12.5028 14.4716 11.9517C14.733 11.3949 14.8636 10.767 14.8636 10.0682C14.8636 9.36932 14.733 8.74432 14.4716 8.19318C14.2159 7.64205 13.8011 7.21023 13.2273 6.89773C12.6534 6.57955 11.892 6.42045 10.9432 6.42045H7.22727V22H5.11364Z" fill="black"/>
<path d="M25.6591 13.9091C25.5568 13.0455 25.142 12.375 24.4148 11.8977C23.6875 11.4205 22.7955 11.1818 21.7386 11.1818C20.9659 11.1818 20.2898 11.3068 19.7102 11.5568C19.1364 11.8068 18.6875 12.1506 18.3636 12.5881C18.0455 13.0256 17.8864 13.5227 17.8864 14.0795C17.8864 14.5455 17.9972 14.946 18.2188 15.2812C18.446 15.6108 18.7358 15.8864 19.0881 16.108C19.4403 16.3239 19.8097 16.5028 20.196 16.6449C20.5824 16.7812 20.9375 16.892 21.2614 16.9773L23.0341 17.4545C23.4886 17.5739 23.9943 17.7386 24.5511 17.9489C25.1136 18.1591 25.6506 18.446 26.1619 18.8097C26.679 19.1676 27.1051 19.6278 27.4403 20.1903C27.7756 20.7528 27.9432 21.4432 27.9432 22.2614C27.9432 23.2045 27.696 24.0568 27.2017 24.8182C26.7131 25.5795 25.9972 26.1847 25.054 26.6335C24.1165 27.0824 22.9773 27.3068 21.6364 27.3068C20.3864 27.3068 19.304 27.1051 18.3892 26.7017C17.4801 26.2983 16.7642 25.7358 16.2415 25.0142C15.7244 24.2926 15.4318 23.4545 15.3636 22.5H17.5455C17.6023 23.1591 17.8239 23.7045 18.2102 24.1364C18.6023 24.5625 19.0966 24.8807 19.6932 25.0909C20.2955 25.2955 20.9432 25.3977 21.6364 25.3977C22.4432 25.3977 23.1676 25.267 23.8097 25.0057C24.4517 24.7386 24.9602 24.3693 25.3352 23.8977C25.7102 23.4205 25.8977 22.8636 25.8977 22.2273C25.8977 21.6477 25.7358 21.1761 25.4119 20.8125C25.0881 20.4489 24.6619 20.1534 24.1335 19.9261C23.6051 19.6989 23.0341 19.5 22.4205 19.3295L20.2727 18.7159C18.9091 18.3239 17.8295 17.7642 17.0341 17.0369C16.2386 16.3097 15.8409 15.358 15.8409 14.1818C15.8409 13.2045 16.1051 12.3523 16.6335 11.625C17.1676 10.892 17.8835 10.3239 18.7812 9.92045C19.6847 9.51136 20.6932 9.30682 21.8068 9.30682C22.9318 9.30682 23.9318 9.50852 24.8068 9.91193C25.6818 10.3097 26.375 10.8551 26.8864 11.5483C27.4034 12.2415 27.6761 13.0284 27.7045 13.9091H25.6591Z" fill="black"/>
</g>
<defs>
<clipPath id="clip0_61_137">
<rect width="32" height="32" fill="white"/>
</clipPath>
</defs>
</svg>
